<svg width="195" height="30" viewBox="0 0 195 30" fill="none" xmlns="http://www.w3.org/2000/svg">
<g filter="url(#filter0_d)">
<path d="M15.6675 15.9639C15.6675 15.2168 15.4038 14.6455 14.8765 14.25C14.3491 13.8457 13.3999 13.4238 12.0288 12.9844C10.6577 12.5361 9.57227 12.0967 8.77246 11.666C6.59277 10.4883 5.50293 8.90186 5.50293 6.90674C5.50293 5.86963 5.79297 4.94678 6.37305 4.13818C6.96191 3.3208 7.80127 2.68359 8.89111 2.22656C9.98975 1.76953 11.2202 1.54102 12.5825 1.54102C13.9536 1.54102 15.1753 1.7915 16.2476 2.29248C17.3198 2.78467 18.1504 3.4834 18.7393 4.38867C19.3369 5.29395 19.6357 6.32227 19.6357 7.47363H15.6807C15.6807 6.59473 15.4038 5.91357 14.8501 5.43018C14.2964 4.93799 13.5186 4.69189 12.5166 4.69189C11.5498 4.69189 10.7983 4.89844 10.2622 5.31152C9.72607 5.71582 9.45801 6.25195 9.45801 6.91992C9.45801 7.54395 9.77002 8.06689 10.394 8.48877C11.0269 8.91064 11.9541 9.30615 13.1758 9.67529C15.4258 10.3521 17.0649 11.1914 18.0933 12.1934C19.1216 13.1953 19.6357 14.4434 19.6357 15.9375C19.6357 17.5986 19.0073 18.9038 17.7505 19.853C16.4937 20.7935 14.8018 21.2637 12.6748 21.2637C11.1982 21.2637 9.85352 20.9956 8.64062 20.4595C7.42773 19.9146 6.50049 19.1719 5.85889 18.2314C5.22607 17.291 4.90967 16.2012 4.90967 14.9619H8.87793C8.87793 17.0801 10.1436 18.1392 12.6748 18.1392C13.6152 18.1392 14.3491 17.9502 14.8765 17.5723C15.4038 17.1855 15.6675 16.6494 15.6675 15.9639ZM26.3325 8.29102C27.3432 7.07812 28.6132 6.47168 30.1425 6.47168C33.2363 6.47168 34.8051 8.26904 34.8491 11.8638V21H31.039V11.9692C31.039 11.1519 30.8632 10.5498 30.5117 10.1631C30.1601 9.76758 29.5756 9.56982 28.7583 9.56982C27.6421 9.56982 26.8335 10.0005 26.3325 10.8618V21H22.5224V0.75H26.3325V8.29102ZM37.6698 13.7358C37.6698 12.3208 37.9423 11.0596 38.4872 9.95215C39.0322 8.84473 39.8144 7.98779 40.8339 7.38135C41.8622 6.7749 43.0531 6.47168 44.4067 6.47168C46.3315 6.47168 47.9003 7.06055 49.1132 8.23828C50.3349 9.41602 51.016 11.0156 51.1567 13.0371L51.183 14.0127C51.183 16.2012 50.5722 17.959 49.3505 19.2861C48.1288 20.6045 46.4897 21.2637 44.433 21.2637C42.3764 21.2637 40.7328 20.6045 39.5024 19.2861C38.2807 17.9678 37.6698 16.1748 37.6698 13.9072V13.7358ZM41.4799 14.0127C41.4799 15.3662 41.7348 16.4033 42.2446 17.124C42.7543 17.8359 43.4838 18.1919 44.433 18.1919C45.3559 18.1919 46.0766 17.8403 46.5951 17.1372C47.1137 16.4253 47.373 15.2915 47.373 13.7358C47.373 12.4087 47.1137 11.3804 46.5951 10.6509C46.0766 9.92139 45.3471 9.55664 44.4067 9.55664C43.475 9.55664 42.7543 9.92139 42.2446 10.6509C41.7348 11.3716 41.4799 12.4922 41.4799 14.0127ZM62.6127 19.5498C61.6722 20.6924 60.3715 21.2637 58.7103 21.2637C57.181 21.2637 56.0121 20.8242 55.2035 19.9453C54.4037 19.0664 53.995 17.7788 53.9774 16.0825V6.73535H57.7875V15.9507C57.7875 17.436 58.4642 18.1787 59.8178 18.1787C61.1097 18.1787 61.9974 17.7305 62.4808 16.834V6.73535H66.3041V21H62.7181L62.6127 19.5498ZM75.0575 16.3462L77.7074 6.73535H81.6888L76.8768 21H73.2381L68.4261 6.73535H72.4076L75.0575 16.3462ZM87.9373 21H84.1141V6.73535H87.9373V21ZM83.8899 3.04395C83.8899 2.47266 84.0789 2.00244 84.4568 1.6333C84.8436 1.26416 85.3665 1.07959 86.0257 1.07959C86.6761 1.07959 87.1946 1.26416 87.5813 1.6333C87.9681 2.00244 88.1614 2.47266 88.1614 3.04395C88.1614 3.62402 87.9637 4.09863 87.5682 4.46777C87.1814 4.83691 86.6673 5.02148 86.0257 5.02148C85.3841 5.02148 84.8655 4.83691 84.47 4.46777C84.0833 4.09863 83.8899 3.62402 83.8899 3.04395ZM96.8093 15.2783L95.4382 16.6494V21H91.6282V0.75H95.4382V11.9692L96.1765 11.02L99.8284 6.73535H104.403L99.2483 12.6812L104.851 21H100.474L96.8093 15.2783Z" fill="black"/>
<path d="M129.293 18.5742C128.581 19.4268 127.574 20.0903 126.274 20.5649C124.973 21.0308 123.531 21.2637 121.949 21.2637C120.288 21.2637 118.829 20.9033 117.572 20.1826C116.324 19.4531 115.358 18.3984 114.672 17.0186C113.995 15.6387 113.648 14.0171 113.631 12.1538V10.8486C113.631 8.93262 113.951 7.27588 114.593 5.87842C115.243 4.47217 116.175 3.3999 117.388 2.66162C118.61 1.91455 120.038 1.54102 121.673 1.54102C123.949 1.54102 125.729 2.08594 127.012 3.17578C128.295 4.25684 129.055 5.83447 129.293 7.90869H125.443C125.267 6.81006 124.876 6.00586 124.27 5.49609C123.672 4.98633 122.846 4.73145 121.791 4.73145C120.446 4.73145 119.423 5.23682 118.719 6.24756C118.016 7.2583 117.66 8.76123 117.652 10.7563V11.9824C117.652 13.9951 118.034 15.5156 118.799 16.5439C119.563 17.5723 120.684 18.0864 122.16 18.0864C123.646 18.0864 124.705 17.77 125.338 17.1372V13.8281H121.738V10.9146H129.293V18.5742ZM136.517 8.29102C137.527 7.07812 138.798 6.47168 140.327 6.47168C143.421 6.47168 144.989 8.26904 145.033 11.8638V21H141.223V11.9692C141.223 11.1519 141.048 10.5498 140.696 10.1631C140.344 9.76758 139.76 9.56982 138.943 9.56982C137.826 9.56982 137.018 10.0005 136.517 10.8618V21H132.707V0.75H136.517V8.29102ZM147.854 13.7358C147.854 12.3208 148.127 11.0596 148.671 9.95215C149.216 8.84473 149.999 7.98779 151.018 7.38135C152.046 6.7749 153.237 6.47168 154.591 6.47168C156.516 6.47168 158.085 7.06055 159.297 8.23828C160.519 9.41602 161.2 11.0156 161.341 13.0371L161.367 14.0127C161.367 16.2012 160.756 17.959 159.535 19.2861C158.313 20.6045 156.674 21.2637 154.617 21.2637C152.561 21.2637 150.917 20.6045 149.687 19.2861C148.465 17.9678 147.854 16.1748 147.854 13.9072V13.7358ZM151.664 14.0127C151.664 15.3662 151.919 16.4033 152.429 17.124C152.939 17.8359 153.668 18.1919 154.617 18.1919C155.54 18.1919 156.261 17.8403 156.779 17.1372C157.298 16.4253 157.557 15.2915 157.557 13.7358C157.557 12.4087 157.298 11.3804 156.779 10.6509C156.261 9.92139 155.531 9.55664 154.591 9.55664C153.659 9.55664 152.939 9.92139 152.429 10.6509C151.919 11.3716 151.664 12.4922 151.664 14.0127ZM171.98 17.0581C171.98 16.5923 171.747 16.2275 171.281 15.9639C170.824 15.6914 170.086 15.4497 169.066 15.2388C165.673 14.5269 163.977 13.0854 163.977 10.9146C163.977 9.64893 164.5 8.59424 165.546 7.75049C166.601 6.89795 167.976 6.47168 169.672 6.47168C171.483 6.47168 172.929 6.89795 174.01 7.75049C175.1 8.60303 175.645 9.71045 175.645 11.0728H171.835C171.835 10.5278 171.659 10.0796 171.307 9.72803C170.956 9.36768 170.406 9.1875 169.659 9.1875C169.018 9.1875 168.521 9.33252 168.169 9.62256C167.818 9.9126 167.642 10.2817 167.642 10.73C167.642 11.1519 167.84 11.4946 168.235 11.7583C168.64 12.0132 169.316 12.2373 170.266 12.4307C171.215 12.6152 172.015 12.8262 172.665 13.0635C174.678 13.8018 175.684 15.0806 175.684 16.8999C175.684 18.2007 175.126 19.2554 174.01 20.064C172.894 20.8638 171.452 21.2637 169.686 21.2637C168.49 21.2637 167.427 21.0527 166.495 20.6309C165.572 20.2002 164.847 19.6157 164.32 18.8774C163.793 18.1304 163.529 17.3262 163.529 16.4648H167.141C167.176 17.1416 167.427 17.6602 167.893 18.0205C168.358 18.3809 168.982 18.561 169.765 18.561C170.494 18.561 171.044 18.4248 171.413 18.1523C171.791 17.8711 171.98 17.5063 171.98 17.0581ZM182.407 8.29102C183.418 7.07812 184.688 6.47168 186.217 6.47168C189.311 6.47168 190.88 8.26904 190.924 11.8638V21H187.114V11.9692C187.114 11.1519 186.938 10.5498 186.586 10.1631C186.235 9.76758 185.65 9.56982 184.833 9.56982C183.717 9.56982 182.908 10.0005 182.407 10.8618V21H178.597V0.75H182.407V8.29102Z" fill="#CA9817"/>
</g>
<defs>
<filter id="filter0_d" x="0.909668" y="0.75" width="194.014" height="28.5137" filterUnits="userSpaceOnUse" color-interpolation-filters="sRGB">
<feFlood flood-opacity="0" result="BackgroundImageFix"/>
<feColorMatrix in="SourceAlpha" type="matrix" values="0 0 0 0 0 0 0 0 0 0 0 0 0 0 0 0 0 0 127 0"/>
<feOffset dy="4"/>
<feGaussianBlur stdDeviation="2"/>
<feColorMatrix type="matrix" values="0 0 0 0 0 0 0 0 0 0 0 0 0 0 0 0 0 0 0.25 0"/>
<feBlend mode="normal" in2="BackgroundImageFix" result="effect1_dropShadow"/>
<feBlend mode="normal" in="SourceGraphic" in2="effect1_dropShadow" result="shape"/>
</filter>
</defs>
</svg>
